<svg width="40" height="40" viewBox="0 0 40 40" fill="none" xmlns="http://www.w3.org/2000/svg">
<g clip-path="url(#clip0_18_29282)">
<path d="M34.9515 6.59051C35.0117 6.37669 35.0139 6.15067 34.9578 5.93572C34.9017 5.72078 34.7893 5.52467 34.6322 5.36758C34.4751 5.2105 34.279 5.09811 34.0641 5.042C33.8491 4.98589 33.6231 4.98807 33.4093 5.04832L3.40926 14.1452C3.16434 14.2143 2.94635 14.3566 2.78443 14.5529C2.62251 14.7492 2.52437 14.9903 2.50314 15.2439C2.48191 15.4975 2.53859 15.7516 2.66561 15.9721C2.79263 16.1926 2.98393 16.3691 3.21395 16.478L16.5921 22.8124C16.8525 22.9359 17.0623 23.1457 17.1858 23.4061L23.5218 36.7827C23.6307 37.0127 23.8072 37.204 24.0277 37.331C24.2482 37.4581 24.5023 37.5147 24.7559 37.4935C25.0095 37.4723 25.2505 37.3741 25.4469 37.2122C25.6432 37.0503 25.7855 36.8323 25.8546 36.5874L34.9515 6.59051Z" stroke="black" stroke-width="2" stroke-linecap="round" stroke-linejoin="round"/>
<path d="M16.9407 23.0594L25 15" stroke="black" stroke-width="2" stroke-linecap="round" stroke-linejoin="round"/>
</g>
<defs>
<clipPath id="clip0_18_29282">
<rect width="40" height="40" fill="white"/>
</clipPath>
</defs>
</svg>
