<svg width="40" height="40" viewBox="0 0 40 40" fill="none" xmlns="http://www.w3.org/2000/svg">
<g clip-path="url(#clip0_18_29276)">
<path d="M25.6859 22.7095C25.8591 22.5943 26.0582 22.5241 26.2652 22.5053C26.4723 22.4864 26.6808 22.5196 26.8719 22.6016L34.2406 25.9032C34.489 26.0094 34.6962 26.1931 34.8314 26.4268C34.9666 26.6606 35.0225 26.9319 34.9906 27.2001C34.7479 29.0142 33.8545 30.6785 32.4767 31.8833C31.0988 33.0881 29.3303 33.7515 27.5 33.7501C21.8642 33.7501 16.4591 31.5113 12.474 27.5261C8.48884 23.541 6.25 18.1359 6.25 12.5001C6.2486 10.6698 6.912 8.90126 8.11682 7.52342C9.32163 6.14558 10.9859 5.25222 12.8 5.00946C13.0682 4.9776 13.3395 5.03345 13.5732 5.16865C13.807 5.30385 13.9907 5.51113 14.0969 5.75946L17.3984 13.1345C17.4796 13.3239 17.5126 13.5304 17.4946 13.7357C17.4766 13.941 17.4081 14.1386 17.2953 14.311L13.9563 18.2813C13.8378 18.4601 13.7678 18.6665 13.753 18.8804C13.7382 19.0943 13.7792 19.3083 13.8719 19.5016C15.1641 22.147 17.8984 24.8485 20.5516 26.1282C20.7459 26.2205 20.961 26.2606 21.1755 26.2444C21.3901 26.2282 21.5967 26.1564 21.775 26.036L25.6859 22.7095Z" stroke="black" stroke-width="2" stroke-linecap="round" stroke-linejoin="round"/>
</g>
<defs>
<clipPath id="clip0_18_29276">
<rect width="40" height="40" fill="white"/>
</clipPath>
</defs>
</svg>
