<svg width="40" height="40" viewBox="0 0 40 40" fill="none" xmlns="http://www.w3.org/2000/svg">
<g clip-path="url(#clip0_18_29289)">
<path d="M33.75 5H6.25C5.55964 5 5 5.55964 5 6.25V33.75C5 34.4404 5.55964 35 6.25 35H33.75C34.4404 35 35 34.4404 35 33.75V6.25C35 5.55964 34.4404 5 33.75 5Z" stroke="black" stroke-width="2" stroke-linecap="round" stroke-linejoin="round"/>
<path d="M18.75 17.5V27.5" stroke="black" stroke-width="2" stroke-linecap="round" stroke-linejoin="round"/>
<path d="M13.75 17.5V27.5" stroke="black" stroke-width="2" stroke-linecap="round" stroke-linejoin="round"/>
<path d="M18.75 21.875C18.75 20.7147 19.2109 19.6019 20.0314 18.7814C20.8519 17.9609 21.9647 17.5 23.125 17.5C24.2853 17.5 25.3981 17.9609 26.2186 18.7814C27.0391 19.6019 27.5 20.7147 27.5 21.875V27.5" stroke="black" stroke-width="2" stroke-linecap="round" stroke-linejoin="round"/>
<path d="M13.75 15C14.7855 15 15.625 14.1605 15.625 13.125C15.625 12.0895 14.7855 11.25 13.75 11.25C12.7145 11.25 11.875 12.0895 11.875 13.125C11.875 14.1605 12.7145 15 13.75 15Z" fill="black"/>
</g>
<defs>
<clipPath id="clip0_18_29289">
<rect width="40" height="40" fill="white"/>
</clipPath>
</defs>
</svg>
